<svg width="40" height="40" viewBox="0 0 40 40" fill="none" xmlns="http://www.w3.org/2000/svg">
<circle cx="20" cy="20" r="20" fill="#FCFCFC"/>
<path d="M28.9745 23.5556C28.3716 25.2238 27.3532 26.7145 26.0016 27.9068C24.65 29.0992 23.0032 29.9598 21.1946 30.419C19.3859 30.8782 17.4662 30.923 15.591 30.5498C13.7157 30.1766 11.9375 29.396 10.4004 28.271C12.9743 28.4397 15.4963 27.8308 17.5995 26.5329C19.7027 25.2351 21.2775 23.316 22.0948 21.0548C22.912 18.7937 22.9291 16.3084 22.1435 13.9604C21.358 11.6125 19.8107 9.52446 17.7269 8C19.6258 8.12404 21.4897 8.66731 23.1679 9.58583C24.8461 10.5043 26.2913 11.7723 27.3865 13.287C28.4818 14.8017 29.1962 16.5207 29.4721 18.3046C29.748 20.0886 29.5775 21.8875 28.9745 23.5556Z" fill="#121212"/>
</svg>
