<svg width="40" height="40" viewBox="0 0 40 40" fill="none" xmlns="http://www.w3.org/2000/svg">
<circle cx="20" cy="20" r="20" fill="#1A1818"/>
<path d="M20 25C21.3261 25 22.5979 24.4732 23.5355 23.5355C24.4732 22.5979 25 21.3261 25 20C25 18.6739 24.4732 17.4021 23.5355 16.4645C22.5979 15.5268 21.3261 15 20 15C18.6739 15 17.4021 15.5268 16.4645 16.4645C15.5268 17.4021 15 18.6739 15 20C15 21.3261 15.5268 22.5979 16.4645 23.5355C17.4021 24.4732 18.6739 25 20 25ZM20 10C20.1658 10 20.3247 10.0658 20.4419 10.1831C20.5592 10.3003 20.625 10.4592 20.625 10.625V13.125C20.625 13.2908 20.5592 13.4497 20.4419 13.5669C20.3247 13.6842 20.1658 13.75 20 13.75C19.8342 13.75 19.6753 13.6842 19.5581 13.5669C19.4408 13.4497 19.375 13.2908 19.375 13.125V10.625C19.375 10.4592 19.4408 10.3003 19.5581 10.1831C19.6753 10.0658 19.8342 10 20 10ZM20 26.25C20.1658 26.25 20.3247 26.3158 20.4419 26.4331C20.5592 26.5503 20.625 26.7092 20.625 26.875V29.375C20.625 29.5408 20.5592 29.6997 20.4419 29.8169C20.3247 29.9342 20.1658 30 20 30C19.8342 30 19.6753 29.9342 19.5581 29.8169C19.4408 29.6997 19.375 29.5408 19.375 29.375V26.875C19.375 26.7092 19.4408 26.5503 19.5581 26.4331C19.6753 26.3158 19.8342 26.25 20 26.25ZM30 20C30 20.1658 29.9342 20.3247 29.8169 20.4419C29.6997 20.5592 29.5408 20.625 29.375 20.625H26.875C26.7092 20.625 26.5503 20.5592 26.4331 20.4419C26.3158 20.3247 26.25 20.1658 26.25 20C26.25 19.8342 26.3158 19.6753 26.4331 19.5581C26.5503 19.4408 26.7092 19.375 26.875 19.375H29.375C29.5408 19.375 29.6997 19.4408 29.8169 19.5581C29.9342 19.6753 30 19.8342 30 20ZM13.75 20C13.75 20.1658 13.6842 20.3247 13.5669 20.4419C13.4497 20.5592 13.2908 20.625 13.125 20.625H10.625C10.4592 20.625 10.3003 20.5592 10.1831 20.4419C10.0658 20.3247 10 20.1658 10 20C10 19.8342 10.0658 19.6753 10.1831 19.5581C10.3003 19.4408 10.4592 19.375 10.625 19.375H13.125C13.2908 19.375 13.4497 19.4408 13.5669 19.5581C13.6842 19.6753 13.75 19.8342 13.75 20ZM27.0713 12.9288C27.1884 13.046 27.2542 13.2049 27.2542 13.3706C27.2542 13.5364 27.1884 13.6953 27.0713 13.8125L25.3038 15.5813C25.2456 15.6393 25.1767 15.6853 25.1008 15.7167C25.0249 15.748 24.9436 15.7642 24.8614 15.7641C24.6956 15.764 24.5366 15.698 24.4194 15.5806C24.3613 15.5225 24.3153 15.4535 24.284 15.3777C24.2526 15.3018 24.2365 15.2204 24.2365 15.1383C24.2366 14.9725 24.3026 14.8134 24.42 14.6962L26.1875 12.9288C26.3047 12.8116 26.4636 12.7458 26.6294 12.7458C26.7951 12.7458 26.954 12.8116 27.0713 12.9288ZM15.58 24.42C15.6972 24.5372 15.763 24.6961 15.763 24.8619C15.763 25.0276 15.6972 25.1865 15.58 25.3038L13.8125 27.0713C13.6946 27.1851 13.5367 27.2481 13.3729 27.2467C13.209 27.2452 13.0522 27.1795 12.9364 27.0636C12.8205 26.9478 12.7548 26.791 12.7533 26.6271C12.7519 26.4633 12.8149 26.3054 12.9288 26.1875L14.6962 24.42C14.8135 24.3028 14.9724 24.237 15.1381 24.237C15.3039 24.237 15.4628 24.3028 15.58 24.42ZM27.0713 27.0713C26.954 27.1884 26.7951 27.2542 26.6294 27.2542C26.4636 27.2542 26.3047 27.1884 26.1875 27.0713L24.42 25.3038C24.3062 25.1859 24.2432 25.028 24.2446 24.8641C24.246 24.7003 24.3117 24.5435 24.4276 24.4276C24.5435 24.3117 24.7003 24.246 24.8641 24.2446C25.028 24.2432 25.1859 24.3062 25.3038 24.42L27.0713 26.1875C27.1884 26.3047 27.2542 26.4636 27.2542 26.6294C27.2542 26.7951 27.1884 26.954 27.0713 27.0713ZM15.58 15.5813C15.4628 15.6984 15.3039 15.7642 15.1381 15.7642C14.9724 15.7642 14.8135 15.6984 14.6962 15.5813L12.9288 13.8125C12.8691 13.7548 12.8214 13.6859 12.7887 13.6096C12.7559 13.5334 12.7387 13.4514 12.738 13.3684C12.7372 13.2854 12.7531 13.2031 12.7845 13.1263C12.8159 13.0495 12.8623 12.9797 12.921 12.921C12.9797 12.8623 13.0495 12.8159 13.1263 12.7845C13.2031 12.7531 13.2854 12.7372 13.3684 12.738C13.4514 12.7387 13.5334 12.7559 13.6096 12.7887C13.6859 12.8214 13.7548 12.8691 13.8125 12.9288L15.58 14.6962C15.6382 14.7543 15.6844 14.8233 15.7159 14.8992C15.7474 14.9751 15.7636 15.0565 15.7636 15.1388C15.7636 15.221 15.7474 15.3024 15.7159 15.3783C15.6844 15.4542 15.6382 15.5232 15.58 15.5813Z" fill="#DEDEDE"/>
</svg>
